<?xml version="1.0" encoding="UTF-8"?><svg id="Calque_2" xmlns="http://www.w3.org/2000/svg" viewBox="0 0 513.42 488.2"><defs><style>.cls-1{fill:#fff;}</style></defs><g id="Calque_1-2"><path class="cls-1" d="M435.13,216.75c-1.01-1.26-2.1-2.5-3.34-3.78v-107.88c0-11.96-8.94-21.88-20.79-23.08-22.48-2.27-40-10.77-58.55-19.77-24.61-11.94-52.5-25.47-95.74-25.47-4.53,0-8.21,3.68-8.21,8.21s3.68,8.21,8.21,8.21c39.48,0,64.44,12.11,88.59,23.83,19.02,9.22,38.68,18.76,64.05,21.33,3.43.35,6.02,3.25,6.02,6.74v96.33c-4.3-1.93-8.86-3.27-13.58-4v-35.96c0-24.32-22.89-34.69-76.55-34.69-26.2,0-54.77,1.78-68.53,14.85-13.77-13.07-42.33-14.85-68.53-14.85-53.65,0-76.55,10.38-76.55,34.69v35.96c-4.72.73-9.29,2.07-13.58,4v-96.33c0-3.5,2.59-6.4,6.02-6.74,25.38-2.57,45.04-12.11,64.06-21.33,18.14-8.8,36.9-17.9,61.78-21.81,2.17-.34,4.07-1.5,5.36-3.27,1.29-1.77,1.82-3.94,1.48-6.11-.7-4.47-4.91-7.53-9.38-6.84-27.3,4.28-47.17,13.93-66.41,23.26-18.54,9-36.06,17.5-58.54,19.77-11.85,1.2-20.79,11.12-20.79,23.08v107.88c-1.24,1.28-2.34,2.52-3.34,3.78l-56.77,70.96C7.64,305.05,0,326.84,0,349.06v115.93c0,12.8,10.41,23.21,23.21,23.21h261.91c4.53,0,8.21-3.68,8.21-8.21s-3.68-8.21-8.21-8.21H23.21c-3.74,0-6.79-3.05-6.79-6.79v-115.93c0-18.5,6.37-36.65,17.92-51.1,0,0,24.68-30.85,24.77-30.96,7.02-8.78,17.49-13.81,28.73-13.81h268.66c4.53,0,8.21-3.68,8.21-8.21s-3.68-8.21-8.21-8.21H87.84c-1.54,0-3.13.07-4.72.21l7.99-9.99c6.62-8.27,16.47-13.28,27.04-13.76,2.84,1.21,7.78,3,15.37,4.74,15.03,3.46,33.42,5.21,54.65,5.21,39.77,0,61.02-6.41,68.53-9.29,7.51,2.87,28.76,9.29,68.53,9.29,41.84,0,62.8-6.91,70-9.95,10.58.47,20.44,5.48,27.06,13.76l7.99,9.99c-1.59-.14-3.17-.21-4.72-.21h-39.09c-4.53,0-8.21,3.68-8.21,8.21s3.68,8.21,8.21,8.21h39.09c11.24,0,21.71,5.03,28.73,13.81l24.77,30.96c9.86,12.32,15.9,27.13,17.5,42.89H38.21c-4.53,0-8.21,3.68-8.21,8.21s3.68,8.21,8.21,8.21h458.79v107.72c0,3.75-3.05,6.79-6.79,6.79h-175.09c-4.53,0-8.21,3.68-8.21,8.21s3.68,8.21,8.21,8.21h175.09c12.8,0,23.21-10.41,23.21-23.21v-115.93c0-22.22-7.64-44-21.52-61.35l-56.77-70.96ZM385.37,161.47v37.96c-8.39,2.82-27.02,7.35-60.13,7.35-33.15,0-51.88-4.54-60.33-7.37v-37.94c0-4.63,1.38-8.15,8.28-11.42,9.6-4.55,27.11-6.85,52.05-6.85,60.13,0,60.13,12.81,60.13,18.27ZM128.04,161.47c0-5.47,0-18.27,60.13-18.27,24.93,0,42.45,2.31,52.05,6.85,6.9,3.27,8.28,6.79,8.28,11.42v37.94c-8.45,2.83-27.18,7.37-60.33,7.37-33.12,0-51.74-4.53-60.13-7.35v-37.96Z"/><path class="cls-1" d="M448.6,36.93c2.15.42,4.34-.02,6.16-1.24,1.82-1.22,3.06-3.08,3.48-5.23,1.6-8.13,8.79-14.04,17.1-14.04,9.36,0,17.17,7.6,17.42,16.95l-.36,2.83c-1.31,5.37-4.44,11.62-9.3,18.55-31.15,44.51-35.29,49.99-35.45,50.2-1.91,2.5-2.23,5.8-.85,8.61,1.39,2.82,4.2,4.58,7.34,4.58l51.07.16c4.51,0,8.19-3.67,8.21-8.18.01-4.53-3.66-8.22-8.18-8.23l-35.13-.11c6.46-9.12,15.35-21.77,26.44-37.62,6.17-8.81,10.18-17.09,11.92-24.6.06-.27.11-.54.15-.82l.5-3.88c.04-.34.07-.69.07-1.04,0-18.66-15.18-33.84-33.84-33.84-16.13,0-30.1,11.48-33.21,27.29-.87,4.44,2.03,8.77,6.47,9.64Z"/></g></svg>