<?xml version="1.0" encoding="UTF-8"?><svg id="Calque_2" xmlns="http://www.w3.org/2000/svg" viewBox="0 0 512 512"><defs><style>.cls-1{fill:#fff;}</style></defs><g id="Calque_1-2"><path class="cls-1" d="M256,226c-5.52,0-10-4.48-10-10v-60c0-5.52,4.48-10,10-10s10,4.48,10,10v60c0,5.52-4.48,10-10,10Z"/><path class="cls-1" d="M502,80.02c5.52,0,10-4.48,10-10V10c0-5.52-4.48-10-10-10h-60.02c-5.52,0-10,4.48-10,10v20.01h-135.49V10c0-5.52-4.48-10-10-10h-60.02c-5.52,0-10,4.48-10,10v20.01H80.02V10c0-5.52-4.48-10-10-10H10C4.48,0,0,4.48,0,10v60.02c0,5.52,4.48,10,10,10h20.01v136.42H10c-5.52,0-10,4.48-10,10v60.02c0,5.52,4.48,10,10,10h20.01v135.52H10c-5.52,0-10,4.48-10,10v60.02c0,5.52,4.48,10,10,10h60.02c5.52,0,10-4.48,10-10v-20.01h136.45v20.01c0,5.52,4.48,10,10,10h60.02c5.52,0,10-4.48,10-10v-20.01h135.49v20.01c0,5.52,4.48,10,10,10h60.02c5.52,0,10-4.48,10-10v-60.02c0-5.52-4.48-10-10-10h-20.01v-135.52h20.01c5.52,0,10-4.48,10-10v-60.02c0-5.52-4.48-10-10-10h-20.01V80.02h20.01ZM236.47,20h40.02v40.02h-40.02V20ZM20,60.02V20h40.02v40.02H20ZM20,276.46v-40.02h40.02v40.02H20ZM60.02,492H20v-40.02h40.02v40.02ZM276.49,492h-40.02v-40.02h40.02v40.02ZM431.98,441.98v20.01h-135.49v-20.01c0-5.52-4.48-10-10-10h-60.02c-5.52,0-10,4.48-10,10v20.01H80.02v-20.01c0-5.52-4.48-10-10-10h-20.01v-135.52h20.01c5.52,0,10-4.48,10-10v-60.02c0-5.52-4.48-10-10-10h-20.01V80.02h20.01c5.52,0,10-4.48,10-10v-20.01h136.45v20.01c0,5.52,4.48,10,10,10h60.02c5.52,0,10-4.48,10-10v-20.01h135.49v20.01c0,5.52,4.48,10,10,10h20.01v136.42h-20.01c-5.52,0-10,4.48-10,10v60.02c0,5.52,4.48,10,10,10h20.01v135.52h-20.01c-5.52,0-10,4.48-10,10ZM492,451.98v40.02h-40.02v-40.02h40.02ZM492,236.44v40.02h-40.02v-40.02h40.02ZM451.98,60.02V20h40.02v40.02h-40.02Z"/><path class="cls-1" d="M256.02,266c-5.52,0-10-4.48-10-10s4.47-10,10-10h0c5.52,0,10,4.48,10,10s-4.48,10-10,10Z"/><path class="cls-1" d="M256,366c-5.52,0-10-4.48-10-10v-60c0-5.52,4.48-10,10-10s10,4.48,10,10v60c0,5.52-4.48,10-10,10Z"/><path class="cls-1" d="M216,266h-60c-5.52,0-10-4.48-10-10s4.48-10,10-10h60c5.52,0,10,4.48,10,10s-4.48,10-10,10Z"/><path class="cls-1" d="M355,266h-60c-5.52,0-10-4.48-10-10s4.48-10,10-10h60c5.52,0,10,4.48,10,10s-4.48,10-10,10Z"/></g></svg>